<?xml version="1.0" encoding="UTF-8" standalone="no"?>
<svg
   xmlns:dc="http://purl.org/dc/elements/1.1/"
   xmlns:cc="http://creativecommons.org/ns#"
   xmlns:rdf="http://www.w3.org/1999/02/22-rdf-syntax-ns#"
   xmlns:svg="http://www.w3.org/2000/svg"
   xmlns="http://www.w3.org/2000/svg"
   xmlns:xlink="http://www.w3.org/1999/xlink"
   xmlns:sodipodi="http://sodipodi.sourceforge.net/DTD/sodipodi-0.dtd"
   xmlns:inkscape="http://www.inkscape.org/namespaces/inkscape"
   version="1.1"
   id="Content"
   x="0px"
   y="0px"
   viewBox="0 0 12031.384 8750.098"
   enable-background="new 0 0 12031.384 8750.098"
   xml:space="preserve"
   sodipodi:docname="mailboat.svg"
   inkscape:version="1.0.2 (e86c870879, 2021-01-15)"
   inkscape:export-filename="/home/rubiconluo/图片/mailboat.png"
   inkscape:export-xdpi="96.002342"
   inkscape:export-ydpi="96.002342"><sodipodi:namedview
     pagecolor="#ffffff"
     bordercolor="#666666"
     borderopacity="1"
     objecttolerance="10"
     gridtolerance="10"
     guidetolerance="10"
     inkscape:pageopacity="0"
     inkscape:pageshadow="2"
     inkscape:window-width="1280"
     inkscape:window-height="731"
     id="namedview952"
     showgrid="false"
     inkscape:zoom="0.040001594"
     inkscape:cx="4582.8246"
     inkscape:cy="4498.8224"
     inkscape:window-x="0"
     inkscape:window-y="0"
     inkscape:window-maximized="1"
     inkscape:current-layer="Content"
     inkscape:document-rotation="0" /><defs
     id="defs77"><rect
       x="5168.717"
       y="3777.5536"
       width="1400.6233"
       height="545.56915"
       id="rect1089" /><rect
       x="2609.7001"
       y="4496.0256"
       width="3760.9124"
       height="1000.82"
       id="rect1058" /><rect
       x="6328.0773"
       y="6450.0207"
       width="2709.8235"
       height="1328.9487"
       id="rect1052" /><rect
       x="2845.9914"
       y="4954.3838"
       width="3059.1416"
       height="1153.892"
       id="rect1046" /><rect
       x="8688.228"
       y="6230.5134"
       width="1958.4181"
       height="1391.0578"
       id="rect905" /><rect
       x="8538.5269"
       y="6241.1575"
       width="2435.5475"
       height="1644.1728"
       id="rect899" /><rect
       x="8378.0841"
       y="6026.6153"
       width="2682.5103"
       height="1106.8895"
       id="rect889" /><linearGradient
       id="linearGradient54"><stop
         style="stop-color:#cecece;stop-opacity:0.48"
         offset="0"
         id="stop50" /><stop
         style="stop-color:#eaeaea;stop-opacity:1"
         offset="1"
         id="stop52" /></linearGradient><filter
       style="color-interpolation-filters:sRGB"
       id="filter889"
       x="-0.031284049"
       width="1.0625681"
       y="-0.070104311"
       height="1.1402086"><feGaussianBlur
         stdDeviation="156.82933"
         id="feGaussianBlur891" /></filter><linearGradient
       xlink:href="#linearGradient54"
       id="linearGradient56"
       x1="4534.7222"
       y1="4135.5386"
       x2="7728.189"
       y2="4023.7678"
       gradientUnits="userSpaceOnUse"
       gradientTransform="matrix(0.73,0,0,0.73,1510.7637,2203.465)" /></defs><rect
     style="fill:#eeeeee;fill-opacity:1;stroke-width:1.00552"
     id="rect1825"
     width="8479.9111"
     height="5532.0835"
     x="1513.6771"
     y="2789.7991" /><path
     id="path44-2"
     style="fill:#d0d0d0;fill-opacity:1;stroke:none;stroke-width:0.727496px;stroke-linecap:butt;stroke-linejoin:miter;stroke-opacity:1"
     d="M 2524.8454,3777.0437 V 3923.969 L 5439.2689,6447.2326 5905.133,6108.2758 Z" /><path
     fill="#db4437"
     d="M 9697.7537,3294.5632 5905.1335,1275.5074 2112.5135,3294.5632 c -329.3593,0 -598.8351,-209.6713 -598.8351,-465.9362 0,-159.5835 103.2986,-300.529 260.4932,-384.3975 L 5905.1335,245.01236 10036.096,2444.2295 c 157.193,83.8685 260.493,224.814 260.493,384.3975 0,256.2649 -269.476,465.9362 -598.8353,465.9362 z"
     id="path47"
     style="fill:#795548;fill-opacity:1;stroke-width:0.643921" /><path
     id="polygon59"
     style="fill:#f1f1f1;stroke-width:0.643921"
     d="m 2112.5135,3294.5632 3792.62,-2019.0558 3792.6202,2019.0558 z" /><path
     fill="#ffffff"
     fill-opacity="0.2"
     d="m 9697.7537,3294.5632 -72.8591,-38.8279 h 72.8591 c 329.3593,0 598.8343,-209.6714 598.8343,-465.9362 v 38.8279 c 0,256.2649 -269.475,465.9362 -598.8343,465.9362 z"
     id="path53"
     style="fill:#4d4d4d;stroke-width:0.643921" /><path
     fill="#ffffff"
     fill-opacity="0.2"
     d="m 2112.5135,3255.7353 h 72.8583 l -72.8583,38.8279 c -329.3593,0 -598.8351,-209.6713 -598.8351,-465.9362 v -38.8279 c 0,256.2648 269.4758,465.9362 598.8351,465.9362 z"
     id="path55"
     style="fill:#4d4d4d;stroke-width:0.643921" /><path
     style="fill:url(#linearGradient56);fill-opacity:1;stroke:none;stroke-width:0.73px;stroke-linecap:butt;stroke-linejoin:miter;stroke-opacity:1"
     d="m 1708.9186,3240.8625 6195.2445,5332.6895 1394.367,2.9217 10.1995,-4787.772 -3403.5966,2319.5741 z"
     id="path48" /><g
     id="g1102"
     transform="translate(1.4556938,454.60747)"><rect
       style="fill:#dddddd;fill-opacity:1;stroke-width:0.949536"
       id="rect1040"
       width="7513.8379"
       height="4784.7354"
       x="2183.9155"
       y="3294.5632" /><text
       xml:space="preserve"
       id="text1044"
       style="font-style:normal;font-weight:normal;font-size:1000px;line-height:1.25;font-family:sans-serif;white-space:pre;shape-inside:url(#rect1046);fill:#000000;fill-opacity:1;stroke:none;"
       transform="matrix(1.9977955,0,0,2.0840385,-2906.7179,-6075.6163)"><tspan
         x="2845.9922"
         y="5839.1484"><tspan
           style="font-size:1000px">Hello</tspan></tspan></text><text
       xml:space="preserve"
       id="text1050"
       style="font-style:normal;font-weight:normal;font-size:1000px;line-height:1.25;font-family:sans-serif;white-space:pre;shape-inside:url(#rect1052);fill:#000000;fill-opacity:1;stroke:none;"
       transform="matrix(1.0817218,0,0,1.0763032,-135.2067,-3271.614)"><tspan
         x="6328.0781"
         y="7455.0195"><tspan
           style="font-size:1000px">你好</tspan></tspan></text><text
       xml:space="preserve"
       id="text1056"
       style="font-size:600px;line-height:1.25;font-family:sans-serif;white-space:pre;shape-inside:url(#rect1058);"
       transform="matrix(1.1258026,0,0,1.1297381,-733.93641,-1284.5566)"><tspan
         x="2609.6992"
         y="5026.8848"><tspan
           style="font-size:600px">Bonjour</tspan></tspan></text><text
       xml:space="preserve"
       id="text1087"
       style="font-size:400px;line-height:1.25;font-family:sans-serif;white-space:pre;shape-inside:url(#rect1089);"
       transform="translate(-19.610383,-169.96816)"><tspan
         x="5168.7168"
         y="4131.4609"><tspan>Hallo</tspan></tspan></text></g><path
     fill="#d23f31"
     d="m 1513.6772,2789.7991 v 5189.9015 c 0,329.36 269.4758,598.8344 598.835,598.8344 h 399.2231 V 2789.7991 Z"
     id="path24"
     style="fill:#795548;fill-opacity:1;stroke-width:0.73" /><path
     fill="#c53929"
     d="M 9298.5301,2789.7991 V 8578.535 h 399.2238 c 329.3591,0 598.8341,-269.4752 598.8341,-598.8344 V 2789.7991 Z"
     id="path26"
     style="fill:#795548;fill-opacity:1;stroke-width:0.73" /><path
     id="path1829"
     style="fill:#cfcfcf;fill-opacity:1;stroke-width:0.693072"
     d="M 3191.2781,8439.3419 H 9307.1457 V 3649.1882 L 6249.2116,5970.4759 Z" /><g
     id="g39"
     transform="matrix(0.81895249,0,0,-0.73,984.75184,3305.6381)"><polygon
       fill="#262626"
       fill-opacity="0.02"
       points="920.128,68.36 11111.256,68.36 11211.062,0 820.322,0 "
       id="polygon61"
       style="fill:#4d4d4d"
       transform="translate(31.935,-2.2248564e-5)" /></g><path
     id="polygon18"
     style="fill:#eeeeee;stroke-width:0.73"
     d="m 2521.9356,8577.5591 h 6786.794 V 3788.7017 l -3393.397,2320.6595 z" /><path
     style="fill:#e4e4e4;fill-opacity:1;stroke:#000000;stroke-width:0.720904px;stroke-linecap:butt;stroke-linejoin:miter;stroke-opacity:1"
     d="M 2511.7353,3942.1563 5905.133,6108.2758 2511.7361,8576.4737 Z"
     id="path44" /><path
     fill="#262626"
     fill-opacity="0.2"
     d="M 9699.2096,8533.9063 H 2113.9692 c -329.3592,0 -598.835,-269.4751 -598.835,-598.8343 v 49.9028 c 0,329.36 269.4758,598.8343 598.835,598.8343 h 7585.2404 c 329.3594,0 598.8344,-269.4751 598.8344,-598.8343 v -49.9028 c 0,329.3592 -269.475,598.8343 -598.8344,598.8343 z"
     id="path51"
     style="stroke-width:0.73" /><metadata
     id="metadata40"><rdf:RDF><cc:Work
         rdf:about=""><dc:title /><dc:format>image/svg+xml</dc:format><dc:type
           rdf:resource="http://purl.org/dc/dcmitype/StillImage" /></cc:Work></rdf:RDF></metadata><text
     xml:space="preserve"
     id="text887"
     style="fill:black;fill-opacity:1;line-height:1.25;stroke:none;font-family:sans-serif;font-style:normal;font-weight:normal;font-size:40px;white-space:pre;shape-inside:url(#rect889);" /><text
     xml:space="preserve"
     style="font-style:normal;font-weight:normal;font-size:40px;line-height:1.25;font-family:sans-serif;fill:#000000;fill-opacity:1;stroke:none"
     x="9039.1904"
     y="6267.8164"
     id="text895"><tspan
       sodipodi:role="line"
       id="tspan893"
       x="9039.1904"
       y="6267.8164" /></text><text
     xml:space="preserve"
     id="text897"
     style="font-style:normal;font-weight:normal;font-size:40px;line-height:1.25;font-family:sans-serif;white-space:pre;shape-inside:url(#rect899);fill:#000000;fill-opacity:1;stroke:none;" /><text
     xml:space="preserve"
     id="text903"
     style="fill:black;fill-opacity:1;line-height:1.25;stroke:none;font-family:sans-serif;font-style:normal;font-weight:normal;font-size:40px;white-space:pre;shape-inside:url(#rect905);" /><text
     xml:space="preserve"
     style="font-style:normal;font-weight:normal;font-size:40px;line-height:1.25;font-family:sans-serif;fill:#000000;fill-opacity:1;stroke:none"
     x="8887.6338"
     y="6503.4517"
     id="text911"><tspan
       sodipodi:role="line"
       id="tspan909"
       x="8887.6338"
       y="6503.4517" /></text><g
     id="g1038"
     transform="matrix(0.90552024,0,0,0.7833338,-453.84917,1158.5636)" /></svg>
